<svg xmlns="http://www.w3.org/2000/svg" version="1.1" xmlns:xlink="http://www.w3.org/1999/xlink" xmlns:svgjs="http://svgjs.com/svgjs" width="1000" height="1000"><rect width="1000" height="1000" rx="200" ry="200" fill="#555555"></rect><g transform="matrix(88.88888888888889,0,0,88.88888888888889,233.33333333333337,113.62281717194452)"><svg xmlns="http://www.w3.org/2000/svg" version="1.1" xmlns:xlink="http://www.w3.org/1999/xlink" xmlns:svgjs="http://svgjs.com/svgjs" width="6" height="9"><svg width="6" height="9" viewBox="0 0 6 9" fill="none" xmlns="http://www.w3.org/2000/svg">
<path d="M3.04 8.1C2.56 8.1 2.14667 8.02 1.8 7.86C1.46 7.7 1.19667 7.47 1.01 7.17C0.823333 6.87 0.726667 6.51333 0.72 6.1H1.62C1.62 6.46667 1.74333 6.75667 1.99 6.97C2.24333 7.18333 2.59333 7.29 3.04 7.29C3.46 7.29 3.78667 7.18667 4.02 6.98C4.26 6.77333 4.38 6.48667 4.38 6.12C4.38 5.82667 4.3 5.57 4.14 5.35C3.98667 5.13 3.76333 4.97667 3.47 4.89L2.48 4.58C1.98 4.42667 1.59333 4.17 1.32 3.81C1.05333 3.45 0.92 3.02667 0.92 2.54C0.92 2.14667 1.00667 1.80667 1.18 1.52C1.36 1.22667 1.61 1 1.93 0.84C2.25 0.673333 2.62667 0.589999 3.06 0.589999C3.7 0.589999 4.21333 0.77 4.6 1.13C4.98667 1.48333 5.18333 1.95667 5.19 2.55H4.29C4.29 2.19 4.18 1.91 3.96 1.71C3.74667 1.50333 3.44333 1.4 3.05 1.4C2.66333 1.4 2.36 1.49333 2.14 1.68C1.92667 1.86667 1.82 2.12667 1.82 2.46C1.82 2.76 1.9 3.02 2.06 3.24C2.22 3.46 2.45 3.61667 2.75 3.71L3.75 4.03C4.23667 4.18333 4.61333 4.44333 4.88 4.81C5.14667 5.17667 5.28 5.60667 5.28 6.1C5.28 6.5 5.18667 6.85 5 7.15C4.81333 7.45 4.55 7.68333 4.21 7.85C3.87667 8.01667 3.48667 8.1 3.04 8.1Z" fill="white"></path>
<path d="M0 4.8H6V5.3H0V4.8Z" fill="white"></path>
</svg></svg></g></svg>